<mxfile host="65bd71144e">
    <diagram id="tLTbmMI8Va7AxkVZSOXd" name="Страница 1">
        <mxGraphModel dx="1139" dy="599" grid="1" gridSize="10" guides="1" tooltips="1" connect="1" arrows="1" fold="1" page="1" pageScale="1" pageWidth="827" pageHeight="1169" math="0" shadow="0">
            <root>
                <mxCell id="0"/>
                <mxCell id="1" parent="0"/>
                <mxCell id="2" value="" style="edgeStyle=none;shape=connector;rounded=1;jumpSize=6;html=1;shadow=0;labelBackgroundColor=default;strokeColor=default;fontFamily=Verdana;fontSize=12;fontColor=default;endArrow=classic;" parent="1" source="3" target="22" edge="1">
                    <mxGeometry relative="1" as="geometry"/>
                </mxCell>
                <mxCell id="3" value="&lt;font face=&quot;Verdana&quot; style=&quot;font-size: 12px;&quot;&gt;Начало&lt;br&gt;&lt;/font&gt;" style="rounded=1;whiteSpace=wrap;html=1;arcSize=50;" parent="1" vertex="1">
                    <mxGeometry x="300" y="40" width="200" height="40" as="geometry"/>
                </mxCell>
                <mxCell id="4" value="" style="edgeStyle=none;html=1;fontFamily=Verdana;fontSize=12;" parent="1" source="5" target="7" edge="1">
                    <mxGeometry relative="1" as="geometry"/>
                </mxCell>
                <mxCell id="5" value="Инициализация элеиентов массива," style="rounded=0;whiteSpace=wrap;html=1;strokeWidth=1;fontFamily=Verdana;fontSize=12;" parent="1" vertex="1">
                    <mxGeometry x="300" y="200" width="200" height="40" as="geometry"/>
                </mxCell>
                <mxCell id="6" value="" style="edgeStyle=none;html=1;fontFamily=Verdana;fontSize=12;" parent="1" source="7" target="10" edge="1">
                    <mxGeometry relative="1" as="geometry"/>
                </mxCell>
                <mxCell id="7" value="j = 0" style="rounded=0;whiteSpace=wrap;html=1;strokeWidth=1;fontFamily=Verdana;fontSize=12;" parent="1" vertex="1">
                    <mxGeometry x="300" y="280" width="200" height="40" as="geometry"/>
                </mxCell>
                <mxCell id="8" value="" style="edgeStyle=none;html=1;fontFamily=Verdana;fontSize=12;" parent="1" source="10" target="13" edge="1">
                    <mxGeometry relative="1" as="geometry"/>
                </mxCell>
                <mxCell id="9" style="edgeStyle=none;shape=connector;rounded=0;jumpSize=6;html=1;exitX=1;exitY=0.5;exitDx=0;exitDy=0;shadow=0;labelBackgroundColor=default;strokeColor=default;fontFamily=Verdana;fontSize=12;fontColor=default;endArrow=classic;entryX=0.5;entryY=0;entryDx=0;entryDy=0;" parent="1" source="10" edge="1">
                    <mxGeometry relative="1" as="geometry">
                        <mxPoint x="400" y="720" as="targetPoint"/>
                        <Array as="points">
                            <mxPoint x="600" y="380"/>
                            <mxPoint x="600" y="700"/>
                            <mxPoint x="400" y="700"/>
                        </Array>
                    </mxGeometry>
                </mxCell>
                <mxCell id="10" value="i = 0; i &amp;lt; array.Length; i++" style="shape=hexagon;perimeter=hexagonPerimeter2;whiteSpace=wrap;html=1;fixedSize=1;strokeWidth=1;fontFamily=Verdana;fontSize=12;" parent="1" vertex="1">
                    <mxGeometry x="300" y="360" width="200" height="40" as="geometry"/>
                </mxCell>
                <mxCell id="11" value="" style="edgeStyle=none;html=1;fontFamily=Verdana;fontSize=12;" parent="1" source="13" target="16" edge="1">
                    <mxGeometry relative="1" as="geometry"/>
                </mxCell>
                <mxCell id="12" style="edgeStyle=none;html=1;exitX=1;exitY=0.5;exitDx=0;exitDy=0;fontFamily=Verdana;fontSize=12;rounded=0;shadow=0;jumpSize=6;" parent="1" source="13" edge="1">
                    <mxGeometry relative="1" as="geometry">
                        <mxPoint x="400" y="660" as="targetPoint"/>
                        <Array as="points">
                            <mxPoint x="560" y="460"/>
                            <mxPoint x="560" y="660"/>
                        </Array>
                    </mxGeometry>
                </mxCell>
                <mxCell id="13" value="array[i].Length &amp;lt;= 3" style="rhombus;whiteSpace=wrap;html=1;strokeWidth=1;fontFamily=Verdana;fontSize=12;" parent="1" vertex="1">
                    <mxGeometry x="300" y="440" width="200" height="40" as="geometry"/>
                </mxCell>
                <mxCell id="14" value="Yes" style="text;html=1;strokeColor=none;fillColor=none;align=center;verticalAlign=middle;whiteSpace=wrap;rounded=0;strokeWidth=1;fontFamily=Verdana;fontSize=12;" parent="1" vertex="1">
                    <mxGeometry x="400" y="400" width="40" height="30" as="geometry"/>
                </mxCell>
                <mxCell id="15" value="" style="edgeStyle=none;html=1;fontFamily=Verdana;fontSize=12;" parent="1" source="16" target="19" edge="1">
                    <mxGeometry relative="1" as="geometry"/>
                </mxCell>
                <mxCell id="16" value="arrayNew[j] = array[i]" style="rounded=0;whiteSpace=wrap;html=1;strokeWidth=1;fontFamily=Verdana;fontSize=12;" parent="1" vertex="1">
                    <mxGeometry x="300" y="520" width="200" height="40" as="geometry"/>
                </mxCell>
                <mxCell id="17" value="Yes" style="text;html=1;strokeColor=none;fillColor=none;align=center;verticalAlign=middle;whiteSpace=wrap;rounded=0;strokeWidth=1;fontFamily=Verdana;fontSize=12;" parent="1" vertex="1">
                    <mxGeometry x="400" y="480" width="40" height="30" as="geometry"/>
                </mxCell>
                <mxCell id="18" style="edgeStyle=none;shape=connector;rounded=0;jumpSize=6;html=1;exitX=0.5;exitY=1;exitDx=0;exitDy=0;shadow=0;labelBackgroundColor=default;strokeColor=default;fontFamily=Verdana;fontSize=12;fontColor=default;endArrow=classic;entryX=0;entryY=0.5;entryDx=0;entryDy=0;" parent="1" source="19" target="10" edge="1">
                    <mxGeometry relative="1" as="geometry">
                        <mxPoint x="280" y="380" as="targetPoint"/>
                        <Array as="points">
                            <mxPoint x="400" y="680"/>
                            <mxPoint x="280" y="680"/>
                            <mxPoint x="240" y="680"/>
                            <mxPoint x="240" y="530"/>
                            <mxPoint x="240" y="380"/>
                        </Array>
                    </mxGeometry>
                </mxCell>
                <mxCell id="19" value="j++" style="rounded=0;whiteSpace=wrap;html=1;strokeWidth=1;fontFamily=Verdana;fontSize=12;" parent="1" vertex="1">
                    <mxGeometry x="300" y="600" width="200" height="40" as="geometry"/>
                </mxCell>
                <mxCell id="20" value="No" style="text;html=1;strokeColor=none;fillColor=none;align=center;verticalAlign=middle;whiteSpace=wrap;rounded=0;strokeWidth=1;fontFamily=Verdana;fontSize=12;fontColor=default;" parent="1" vertex="1">
                    <mxGeometry x="500" y="430" width="40" height="30" as="geometry"/>
                </mxCell>
                <mxCell id="21" value="" style="edgeStyle=none;shape=connector;rounded=1;jumpSize=6;html=1;shadow=0;labelBackgroundColor=default;strokeColor=default;fontFamily=Verdana;fontSize=12;fontColor=default;endArrow=classic;" parent="1" source="22" target="5" edge="1">
                    <mxGeometry relative="1" as="geometry"/>
                </mxCell>
                <mxCell id="22" value="Ввод массива,&amp;nbsp;&lt;br&gt;перевод в строку для счета элементв." style="shape=parallelogram;html=1;strokeWidth=2;perimeter=parallelogramPerimeter;whiteSpace=wrap;rounded=1;arcSize=0;size=0.23;fontFamily=Verdana;fontSize=12;fontColor=default;" parent="1" vertex="1">
                    <mxGeometry x="220" y="120" width="360" height="40" as="geometry"/>
                </mxCell>
                <mxCell id="23" value="" style="edgeStyle=none;shape=connector;rounded=1;jumpSize=6;html=1;shadow=0;labelBackgroundColor=default;strokeColor=default;fontFamily=Verdana;fontSize=12;fontColor=default;endArrow=classic;exitX=0.5;exitY=0.884;exitDx=0;exitDy=0;exitPerimeter=0;" parent="1" source="27" target="26" edge="1">
                    <mxGeometry relative="1" as="geometry">
                        <mxPoint x="400" y="760" as="sourcePoint"/>
                    </mxGeometry>
                </mxCell>
                <mxCell id="25" value="No" style="text;html=1;strokeColor=none;fillColor=none;align=center;verticalAlign=middle;whiteSpace=wrap;rounded=0;strokeWidth=1;fontFamily=Verdana;fontSize=12;fontColor=default;" parent="1" vertex="1">
                    <mxGeometry x="500" y="350" width="40" height="30" as="geometry"/>
                </mxCell>
                <mxCell id="26" value="Конец" style="rounded=1;whiteSpace=wrap;html=1;strokeWidth=1;fontFamily=Verdana;fontSize=12;fontColor=default;arcSize=50;" parent="1" vertex="1">
                    <mxGeometry x="300" y="850" width="200" height="40" as="geometry"/>
                </mxCell>
                <mxCell id="27" value="&lt;span style=&quot;font-family: Verdana;&quot;&gt;output arrayNew, j&lt;/span&gt;&lt;span style=&quot;font-family: Verdana;&quot;&gt;output arrayNew, j&lt;/span&gt;" style="shape=document;whiteSpace=wrap;html=1;boundedLbl=1;" vertex="1" parent="1">
                    <mxGeometry x="340" y="730" width="120" height="80" as="geometry"/>
                </mxCell>
            </root>
        </mxGraphModel>
    </diagram>
</mxfile>